<svg width="231" height="217" viewBox="0 0 231 217" fill="none" xmlns="http://www.w3.org/2000/svg">
<path d="M173.127 190.328C170.698 193.757 166.277 195.625 160.214 195.966C154.158 196.307 146.551 195.115 137.893 192.517C120.582 187.323 99.181 176.545 77.807 161.403C56.433 146.261 39.1674 129.645 28.5268 115.036C23.2049 107.729 19.5573 100.948 17.8701 95.1222C16.1811 89.29 16.4777 84.4994 18.9066 81.0709C21.3355 77.6425 25.7566 75.7739 31.8189 75.4331C37.8748 75.0927 45.4819 76.2848 54.1399 78.8824C71.4509 84.0759 92.8522 94.8539 114.226 109.996C135.6 125.139 152.866 141.755 163.506 156.363C168.828 163.67 172.476 170.451 174.163 176.277C175.852 182.109 175.555 186.9 173.127 190.328Z" stroke="#53D5B2"/>
<path d="M191.625 164.217C189.196 167.646 184.775 169.514 178.713 169.855C172.657 170.195 165.05 169.003 156.392 166.406C139.081 161.212 117.68 150.434 96.3056 135.292C74.9316 120.149 57.666 103.534 47.0254 88.9247C41.7035 81.6182 38.056 74.8369 36.3688 69.0109C34.6798 63.1787 34.9763 58.3881 37.4052 54.9596C39.8342 51.5311 44.2553 49.6626 50.3176 49.3218C56.3734 48.9814 63.9805 50.1735 72.6386 52.7711C89.9495 57.9646 111.351 68.7426 132.725 83.8851C154.099 99.0275 171.364 115.643 182.005 130.252C187.327 137.559 190.974 144.34 192.662 150.166C194.351 155.998 194.054 160.789 191.625 164.217Z" stroke="#53D5B2"/>
<path d="M201.453 150.346C199.024 153.774 194.603 155.643 188.54 155.983C182.484 156.324 174.877 155.132 166.219 152.534C148.908 147.341 127.507 136.563 106.133 121.42C84.759 106.278 67.4934 89.6619 56.8528 75.0531C51.5309 67.7465 47.8834 60.9653 46.1962 55.1393C44.5071 49.307 44.8037 44.5165 47.2326 41.088C49.6615 37.6595 54.0827 35.791 60.145 35.4502C66.2008 35.1097 73.8079 36.3019 82.466 38.8994C99.7769 44.093 121.178 54.871 142.552 70.0134C163.926 85.1559 181.192 101.772 191.832 116.38C197.154 123.687 200.802 130.468 202.489 136.294C204.178 142.126 203.881 146.917 201.453 150.346Z" stroke="#53D5B2"/>
<path d="M211.858 135.658C209.429 139.086 205.008 140.955 198.946 141.296C192.89 141.636 185.283 140.444 176.625 137.846C159.314 132.653 137.912 121.875 116.539 106.732C95.1645 91.59 77.8989 74.9743 67.2583 60.3655C61.9364 53.0589 58.2888 46.2777 56.6016 40.4516C54.9126 34.6194 55.2092 29.8288 57.6381 26.4004C60.067 22.9719 64.4881 21.1033 70.5504 20.7625C76.6063 20.4221 84.2134 21.6142 92.8714 24.2118C110.182 29.4053 131.584 40.1833 152.958 55.3258C174.332 70.4682 191.597 87.0839 202.238 101.693C207.56 108.999 211.207 115.781 212.895 121.607C214.584 127.439 214.287 132.229 211.858 135.658Z" stroke="#53D5B2"/>
<path d="M182.954 176.457C180.525 179.885 176.104 181.754 170.042 182.095C163.986 182.435 156.379 181.243 147.721 178.645C130.41 173.452 109.008 162.674 87.6344 147.531C66.2604 132.389 48.9948 115.773 38.3542 101.164C33.0322 93.8578 29.3847 87.0766 27.6975 81.2506C26.0085 75.4184 26.3051 70.6278 28.734 67.1993C31.1629 63.7708 35.584 61.9023 41.6463 61.5615C47.7022 61.2211 55.3093 62.4132 63.9673 65.0107C81.2783 70.2043 102.68 80.9823 124.054 96.1247C145.428 111.267 162.693 127.883 173.334 142.492C178.656 149.798 182.303 156.58 183.99 162.406C185.679 168.238 185.383 173.028 182.954 176.457Z" stroke="#53D5B2"/>
</svg>
