<svg width="230" height="207" viewBox="0 0 230 207" fill="none" xmlns="http://www.w3.org/2000/svg">
<path d="M214.067 88.063C216.064 91.7598 215.779 96.5512 213.398 102.137C211.019 107.716 206.579 114.007 200.413 120.617C188.085 133.833 168.939 148.241 145.892 160.69C122.845 173.139 100.298 181.252 82.4864 184.316C73.5779 185.849 65.8825 186.113 59.9122 185.043C53.9354 183.973 49.7725 181.584 47.7756 177.887C45.7787 174.19 46.0631 169.399 48.4445 163.813C50.8232 158.234 55.2633 151.943 61.4291 145.333C73.7569 132.117 92.9035 117.709 115.951 105.26C138.997 92.8107 161.544 84.6974 179.356 81.6335C188.264 80.101 195.96 79.8368 201.93 80.9064C207.907 81.9772 212.07 84.3662 214.067 88.063Z" stroke="#AC8BEE"/>
<path d="M198.858 59.9079C200.855 63.6048 200.571 68.3961 198.19 73.9815C195.811 79.561 191.371 85.8518 185.205 92.4619C172.877 105.678 153.73 120.086 130.684 132.535C107.637 144.984 85.0898 153.097 67.2782 156.161C58.3697 157.694 50.6743 157.958 44.7039 156.888C38.7272 155.818 34.5643 153.428 32.5674 149.732C30.5705 146.035 30.8549 141.243 33.2362 135.658C35.615 130.079 40.0551 123.788 46.2208 117.178C58.5486 103.962 77.6953 89.5537 100.742 77.1046C123.789 64.6556 146.336 56.5423 164.148 53.4784C173.056 51.946 180.752 51.6817 186.722 52.7513C192.699 53.8221 196.862 56.2111 198.858 59.9079Z" stroke="#AC8BEE"/>
<path d="M190.779 44.9505C192.776 48.6474 192.491 53.4387 190.11 59.0241C187.731 64.6036 183.291 70.8944 177.126 77.5045C164.798 90.7206 145.651 105.129 122.604 117.578C99.5571 130.027 77.0104 138.14 59.1988 141.204C50.2903 142.736 42.5949 143 36.6245 141.931C30.6478 140.86 26.4849 138.471 24.488 134.774C22.4911 131.077 22.7755 126.286 25.1568 120.701C27.5356 115.121 31.9757 108.83 38.1414 102.22C50.4692 89.0041 69.6159 74.5963 92.6629 62.1472C115.71 49.6982 138.257 41.5849 156.068 38.521C164.977 36.9886 172.672 36.7243 178.642 37.7939C184.619 38.8647 188.782 41.2537 190.779 44.9505Z" stroke="#AC8BEE"/>
<path d="M182.224 29.1133C184.221 32.8101 183.937 37.6014 181.556 43.1869C179.177 48.7663 174.737 55.0572 168.571 61.6672C156.243 74.8834 137.096 89.2913 114.049 101.74C91.0025 114.189 68.4557 122.303 50.6441 125.367C41.7357 126.899 34.0402 127.163 28.0699 126.094C22.0932 125.023 17.9302 122.634 15.9334 118.937C13.9365 115.24 14.2209 110.449 16.6022 104.863C18.981 99.2839 23.4211 92.9931 29.5868 86.383C41.9146 73.1669 61.0613 58.759 84.1082 46.31C107.155 33.8609 129.702 25.7477 147.514 22.6837C156.422 21.1513 164.117 20.887 170.088 21.9567C176.065 23.0274 180.227 25.4165 182.224 29.1133Z" stroke="#AC8BEE"/>
<path d="M205.987 73.1056C207.984 76.8024 207.7 81.5938 205.318 87.1792C202.94 92.7587 198.5 99.0495 192.334 105.66C180.006 118.876 160.859 133.284 137.812 145.733C114.765 158.182 92.2186 166.295 74.407 169.359C65.4986 170.891 57.8031 171.156 51.8328 170.086C45.8561 169.015 41.6931 166.626 39.6962 162.929C37.6994 159.233 37.9838 154.441 40.3651 148.856C42.7438 143.276 47.184 136.985 53.3497 130.375C65.6775 117.159 84.8242 102.751 107.871 90.3023C130.918 77.8533 153.465 69.74 171.276 66.6761C180.185 65.1436 187.88 64.8794 193.851 65.949C199.827 67.0198 203.99 69.4088 205.987 73.1056Z" stroke="#AC8BEE"/>
</svg>
